<?xml version="1.0" encoding="UTF-8"?>
<!DOCTYPE svg PUBLIC "-//W3C//DTD SVG 1.1//EN" "http://www.w3.org/Graphics/SVG/1.1/DTD/svg11.dtd">
<svg xmlns="http://www.w3.org/2000/svg" version="1.1" width="332px" height="332px" style="shape-rendering:geometricPrecision; text-rendering:geometricPrecision; image-rendering:optimizeQuality; fill-rule:evenodd; clip-rule:evenodd" xmlns:xlink="http://www.w3.org/1999/xlink">
<g><path style="opacity:1" fill="#fafafa" d="M -0.5,-0.5 C 110.167,-0.5 220.833,-0.5 331.5,-0.5C 331.5,31.1667 331.5,62.8333 331.5,94.5C 330.206,93.7101 329.039,92.7101 328,91.5C 326.667,94.1667 325.333,94.1667 324,91.5C 322.667,94.1667 321.333,94.1667 320,91.5C 318.667,94.1667 317.333,94.1667 316,91.5C 314.667,94.1667 313.333,94.1667 312,91.5C 310.667,94.1667 309.333,94.1667 308,91.5C 306.667,94.1667 305.333,94.1667 304,91.5C 302.667,94.1667 301.333,94.1667 300,91.5C 298.667,94.1667 297.333,94.1667 296,91.5C 294.667,94.1667 293.333,94.1667 292,91.5C 290.667,94.1667 289.333,94.1667 288,91.5C 286.667,94.1667 285.333,94.1667 284,91.5C 282.667,94.1667 281.333,94.1667 280,91.5C 278.667,94.1667 277.333,94.1667 276,91.5C 274.667,94.1667 273.333,94.1667 272,91.5C 270.667,94.1667 269.333,94.1667 268,91.5C 266.684,94.028 265.517,94.028 264.5,91.5C 267.044,89.3888 267.044,87.2221 264.5,85C 265.167,84.3333 265.833,83.6667 266.5,83C 265.62,81.6439 265.286,80.1439 265.5,78.5C 257.307,73.9101 248.64,70.0767 239.5,67C 236.269,64.2727 233.603,61.106 231.5,57.5C 237.318,51.1812 243.318,45.0145 249.5,39C 263.416,36.1693 267.083,28.5026 260.5,16C 248.787,9.18665 241.12,12.3533 237.5,25.5C 231.167,30.6667 224.833,35.8333 218.5,41C 214.749,39.2912 211.415,36.6245 208.5,33C 202.063,31.7139 198.063,34.2139 196.5,40.5C 196.768,43.7033 198.102,46.37 200.5,48.5C 200.167,49.5 199.5,50.1667 198.5,50.5C 187.715,45.5726 176.715,41.2392 165.5,37.5C 153.966,41.2654 142.633,45.5987 131.5,50.5C 130.5,50 129.5,49.5 128.5,49C 134.645,44.3062 134.979,39.3062 129.5,34C 126.97,32.5783 124.303,32.245 121.5,33C 118.651,36.0162 115.651,38.8496 112.5,41.5C 105.523,36.3576 98.6901,31.0242 92,25.5C 90.295,15.5635 84.4616,11.3968 74.5,13C 66.3355,16.8331 63.8355,22.9998 67,31.5C 70.1036,36.4694 74.6036,38.9694 80.5,39C 86.8655,45.031 92.8655,51.3643 98.5,58C 95.462,60.7026 92.7954,63.7026 90.5,67C 81.9664,70.2861 73.633,73.9527 65.5,78C 66.7393,81.3642 67.4059,84.8642 67.5,88.5C 67.7692,90.4286 67.2692,92.0953 66,93.5C 64.6667,90.8333 63.3333,90.8333 62,93.5C 60.6667,90.8333 59.3333,90.8333 58,93.5C 56.6667,90.8333 55.3333,90.8333 54,93.5C 52.6667,90.8333 51.3333,90.8333 50,93.5C 48.6667,90.8333 47.3333,90.8333 46,93.5C 44.6667,90.8333 43.3333,90.8333 42,93.5C 40.6667,90.8333 39.3333,90.8333 38,93.5C 36.6667,90.8333 35.3333,90.8333 34,93.5C 32.6667,90.8333 31.3333,90.8333 30,93.5C 28.6667,90.8333 27.3333,90.8333 26,93.5C 24.6667,90.8333 23.3333,90.8333 22,93.5C 20.6667,90.8333 19.3333,90.8333 18,93.5C 16.6667,90.8333 15.3333,90.8333 14,93.5C 12.6667,90.8333 11.3333,90.8333 10,93.5C 8.66667,90.8333 7.33333,90.8333 6,93.5C 4.66667,90.8333 3.33333,90.8333 2,93.5C 1.2917,92.6195 0.458367,91.9528 -0.5,91.5C -0.5,60.8333 -0.5,30.1667 -0.5,-0.5 Z"/></g>
<g><path style="opacity:1" fill="#0c0907" d="M 265.5,78.5 C 259.269,107.317 253.269,136.317 247.5,165.5C 251.085,171.002 254.419,176.669 257.5,182.5C 257.028,185.97 255.028,187.637 251.5,187.5C 245.963,186.065 240.963,183.565 236.5,180C 188.833,179.333 141.167,179.333 93.5,180C 89.5,182.333 85.5,184.667 81.5,187C 74.5098,189.005 71.6764,186.505 73,179.5C 75.2798,175.553 77.9465,171.887 81,168.5C 81.9847,166.634 82.4847,164.634 82.5,162.5C 77.9874,137.602 72.9874,112.935 67.5,88.5C 67.4059,84.8642 66.7393,81.3642 65.5,78C 73.633,73.9527 81.9664,70.2861 90.5,67C 92.7954,63.7026 95.462,60.7026 98.5,58C 92.8655,51.3643 86.8655,45.031 80.5,39C 74.6036,38.9694 70.1036,36.4694 67,31.5C 63.8355,22.9998 66.3355,16.8331 74.5,13C 84.4616,11.3968 90.295,15.5635 92,25.5C 98.6901,31.0242 105.523,36.3576 112.5,41.5C 115.651,38.8496 118.651,36.0162 121.5,33C 124.303,32.245 126.97,32.5783 129.5,34C 134.979,39.3062 134.645,44.3062 128.5,49C 129.5,49.5 130.5,50 131.5,50.5C 142.633,45.5987 153.966,41.2654 165.5,37.5C 176.715,41.2392 187.715,45.5726 198.5,50.5C 199.5,50.1667 200.167,49.5 200.5,48.5C 198.102,46.37 196.768,43.7033 196.5,40.5C 198.063,34.2139 202.063,31.7139 208.5,33C 211.415,36.6245 214.749,39.2912 218.5,41C 224.833,35.8333 231.167,30.6667 237.5,25.5C 241.12,12.3533 248.787,9.18665 260.5,16C 267.083,28.5026 263.416,36.1693 249.5,39C 243.318,45.0145 237.318,51.1812 231.5,57.5C 233.603,61.106 236.269,64.2727 239.5,67C 248.64,70.0767 257.307,73.9101 265.5,78.5 Z"/></g>
<g><path style="opacity:1" fill="#150e08" d="M 83.5,29.5 C 75.718,32.3843 72.3847,29.7176 73.5,21.5C 81.8197,17.8155 85.1531,20.4822 83.5,29.5 Z"/></g>
<g><path style="opacity:1" fill="#d7d7d7" d="M 83.5,30.5 C 83.5,30.1667 83.5,29.8333 83.5,29.5C 85.1531,20.4822 81.8197,17.8155 73.5,21.5C 73.5,20.8333 73.5,20.1667 73.5,19.5C 80.0617,16.4708 84.3951,18.4708 86.5,25.5C 86.2427,27.6924 85.2427,29.3591 83.5,30.5 Z"/></g>
<g><path style="opacity:1" fill="#d97400" d="M 77.5,21.5 C 80.8573,22.1212 82.024,24.1212 81,27.5C 80.4921,25.0958 79.3255,24.4291 77.5,25.5C 76.3744,24.1916 76.3744,22.8583 77.5,21.5 Z"/></g>
<g><path style="opacity:1" fill="#989898" d="M 73.5,19.5 C 73.5,20.1667 73.5,20.8333 73.5,21.5C 72.3847,29.7176 75.718,32.3843 83.5,29.5C 83.5,29.8333 83.5,30.1667 83.5,30.5C 79.4929,34.5615 75.6595,34.2281 72,29.5C 69.7392,25.6537 70.2392,22.3204 73.5,19.5 Z"/></g>
<g><path style="opacity:1" fill="#ababab" d="M 248.5,17.5 C 257.632,17.7898 260.465,22.1231 257,30.5C 250.095,35.4399 245.595,33.7733 243.5,25.5C 243.672,21.8072 245.339,19.1406 248.5,17.5 Z"/></g>
<g><path style="opacity:1" fill="#140e08" d="M 248.5,19.5 C 256.346,19.6936 258.346,23.1936 254.5,30C 245.051,30.8661 243.051,27.3661 248.5,19.5 Z"/></g>
<g><path style="opacity:1" fill="#e47a00" d="M 248.5,22.5 C 250.167,22.5 251.833,22.5 253.5,22.5C 253.574,26.1611 252.574,26.8277 250.5,24.5C 247.789,26.8049 247.122,26.1383 248.5,22.5 Z"/></g>
<g><path style="opacity:1" fill="#d17103" d="M 87.5,29.5 C 91.0749,30.2068 91.2416,31.2068 88,32.5C 86.3167,31.8235 86.1501,30.8235 87.5,29.5 Z"/></g>
<g><path style="opacity:1" fill="#c96601" d="M 240.5,29.5 C 242.609,30.0524 243.442,31.3858 243,33.5C 240.423,32.8347 239.59,31.5014 240.5,29.5 Z"/></g>
<g><path style="opacity:1" fill="#d6771c" d="M 236.5,32.5 C 239.323,33.1476 240.823,34.8142 241,37.5C 239.221,34.7236 238.221,35.0569 238,38.5C 234.64,36.7984 234.14,34.7984 236.5,32.5 Z"/></g>
<g><path style="opacity:1" fill="#db7504" d="M 91.5,32.5 C 94.7015,33.8395 95.0348,35.5061 92.5,37.5C 91.8076,36.9747 91.3076,36.3081 91,35.5C 89.2569,37.9746 88.2569,37.9746 88,35.5C 89.5185,34.8366 90.6851,33.8366 91.5,32.5 Z"/></g>
<g><path style="opacity:1" fill="#dfdcd6" d="M 212.5,45.5 C 212.631,46.2389 212.464,46.9056 212,47.5C 210.649,45.981 209.149,44.6477 207.5,43.5C 206.304,43.8457 206.304,44.3457 207.5,45C 206.906,45.4643 206.239,45.631 205.5,45.5C 200.557,42.9098 200.39,40.2431 205,37.5C 208.18,39.5244 210.68,42.1911 212.5,45.5 Z"/></g>
<g><path style="opacity:1" fill="#e17d13" d="M 96.5,36.5 C 103.223,39.2866 103.056,41.6199 96,43.5C 95.5518,41.7756 94.7185,41.109 93.5,41.5C 94.2599,39.6396 95.2599,37.973 96.5,36.5 Z"/></g>
<g><path style="opacity:1" fill="#e1ded8" d="M 124.5,45.5 C 123.25,45.4226 122.417,44.756 122,43.5C 120.667,44.8333 119.333,46.1667 118,47.5C 117.536,46.9056 117.369,46.2389 117.5,45.5C 119.094,42.2358 121.427,39.5691 124.5,37.5C 126.053,38.439 127.387,39.6057 128.5,41C 127.396,42.7153 126.062,44.2153 124.5,45.5 Z"/></g>
<g><path style="opacity:1" fill="#dd780a" d="M 231.5,36.5 C 233.951,38.1226 235.951,40.2893 237.5,43C 234.461,43.619 231.461,42.7856 228.5,40.5C 229.524,39.1482 230.524,37.8149 231.5,36.5 Z"/></g>
<g><path style="opacity:1" fill="#aba79d" d="M 226.5,42.5 C 225.094,42.9731 224.427,43.9731 224.5,45.5C 223.427,44.7494 223.26,43.7494 224,42.5C 224.977,41.2264 225.811,41.2264 226.5,42.5 Z"/></g>
<g><path style="opacity:1" fill="#e4e1dc" d="M 158.5,44.5 C 159.953,45.8249 159.619,46.6582 157.5,47C 129.833,58.1667 102.167,69.3333 74.5,80.5C 73.359,82.4213 73.1923,84.4213 74,86.5C 79.7722,115.528 85.6056,144.528 91.5,173.5C 107.684,173.508 123.684,174.174 139.5,175.5C 122.5,175.5 105.5,175.5 88.5,175.5C 82.2057,143.533 76.3723,111.533 71,79.5C 99.9864,67.3389 129.153,55.6722 158.5,44.5 Z"/></g>
<g><path style="opacity:1" fill="#e67e14" d="M 102.5,42.5 C 103.5,42.5 104.5,42.5 105.5,42.5C 106.077,45.5497 104.91,47.5497 102,48.5C 102.077,47.2624 101.911,46.2624 101.5,45.5C 100.167,46.5 98.8333,47.5 97.5,48.5C 97.1667,48.1667 96.8333,47.8333 96.5,47.5C 98.5441,45.7806 100.544,44.1139 102.5,42.5 Z"/></g>
<g><path style="opacity:1" fill="#f4a911" d="M 124.5,45.5 C 121.138,49.1925 117.805,52.8592 114.5,56.5C 113.559,53.8749 112.393,53.8749 111,56.5C 110.833,56.1667 110.667,55.8333 110.5,55.5C 111.63,54.3777 112.297,53.0443 112.5,51.5C 113.419,48.9108 115.086,46.9108 117.5,45.5C 117.369,46.2389 117.536,46.9056 118,47.5C 119.333,46.1667 120.667,44.8333 122,43.5C 122.417,44.756 123.25,45.4226 124.5,45.5 Z"/></g>
<g><path style="opacity:1" fill="#f3a80f" d="M 212.5,45.5 C 214.89,46.8908 216.557,48.8908 217.5,51.5C 219.19,55.1873 218.69,55.854 216,53.5C 215.7,55.0657 216.2,56.399 217.5,57.5C 216.761,57.631 216.094,57.4643 215.5,57C 212.331,52.9992 208.997,49.1659 205.5,45.5C 206.239,45.631 206.906,45.4643 207.5,45C 206.304,44.3457 206.304,43.8457 207.5,43.5C 209.149,44.6477 210.649,45.981 212,47.5C 212.464,46.9056 212.631,46.2389 212.5,45.5 Z"/></g>
<g><path style="opacity:1" fill="#de7605" d="M 226.5,42.5 C 228.98,43.9117 231.313,45.5784 233.5,47.5C 233.167,47.8333 232.833,48.1667 232.5,48.5C 231.167,47.5 229.833,46.5 228.5,45.5C 226.808,49.2654 225.475,49.2654 224.5,45.5C 224.427,43.9731 225.094,42.9731 226.5,42.5 Z"/></g>
<g><path style="opacity:1" fill="#e4cb9c" d="M 110.5,48.5 C 109.209,48.7373 108.209,48.404 107.5,47.5C 107.369,46.6236 107.702,45.9569 108.5,45.5C 110.383,46.2647 111.049,47.2647 110.5,48.5 Z"/></g>
<g><path style="opacity:1" fill="#f1d49b" d="M 222.5,48.5 C 221.5,48.5 220.5,48.5 219.5,48.5C 219.062,48.5654 218.728,48.3988 218.5,48C 220.464,44.4966 221.797,44.6632 222.5,48.5 Z"/></g>
<g><path style="opacity:1" fill="#e48100" d="M 219.5,48.5 C 220.5,48.5 221.5,48.5 222.5,48.5C 224.982,49.8043 226.149,51.8043 226,54.5C 223.336,53.0016 221.17,51.0016 219.5,48.5 Z"/></g>
<g><path style="opacity:1" fill="#d37401" d="M 107.5,47.5 C 108.209,48.404 109.209,48.7373 110.5,48.5C 108.572,51.6146 105.906,53.4479 102.5,54C 104.066,51.6744 105.732,49.5078 107.5,47.5 Z"/></g>
<g><path style="opacity:1" fill="#f2af1f" d="M 160.5,43.5 C 162.176,44.1834 162.843,45.5168 162.5,47.5C 133.167,58.7215 104.167,70.7215 75.5,83.5C 81.5231,112.62 87.5231,141.62 93.5,170.5C 115.67,171.167 138.004,171.833 160.5,172.5C 159.807,173.518 159.141,174.518 158.5,175.5C 152.167,175.5 145.833,175.5 139.5,175.5C 123.684,174.174 107.684,173.508 91.5,173.5C 85.6056,144.528 79.7722,115.528 74,86.5C 73.1923,84.4213 73.359,82.4213 74.5,80.5C 102.167,69.3333 129.833,58.1667 157.5,47C 159.619,46.6582 159.953,45.8249 158.5,44.5C 158.842,43.6618 159.508,43.3284 160.5,43.5 Z"/></g>
<g><path style="opacity:1" fill="#919191" d="M 122.5,51.5 C 126.051,52.1855 126.217,53.1855 123,54.5C 122.517,53.552 122.351,52.552 122.5,51.5 Z"/></g>
<g><path style="opacity:1" fill="#1b1917" d="M 251.5,80.5 C 252.6,81.5585 253.934,82.3918 255.5,83C 249.441,111.794 243.441,140.628 237.5,169.5C 189.505,170.5 141.505,170.833 93.5,170.5C 87.5231,141.62 81.5231,112.62 75.5,83.5C 104.167,70.7215 133.167,58.7215 162.5,47.5C 165.17,46.3204 167.836,46.487 170.5,48C 197.416,59.1365 224.416,69.9698 251.5,80.5 Z"/></g>
<g><path style="opacity:1" fill="#b2b2b2" d="M 165.5,48.5 C 195.07,59.9525 224.403,71.9525 253.5,84.5C 247.577,112.451 241.91,140.451 236.5,168.5C 212.833,168.5 189.167,168.5 165.5,168.5C 165.5,164.833 165.5,161.167 165.5,157.5C 186.257,157.416 206.59,154.582 226.5,149C 228.2,140.838 230.033,132.672 232,124.5C 234.683,121.984 237.183,119.317 239.5,116.5C 238.319,112.772 236.985,109.105 235.5,105.5C 237.428,99.9118 238.594,94.2451 239,88.5C 236.455,89.5218 233.955,90.6884 231.5,92C 229.045,97.0799 226.212,101.913 223,106.5C 221.611,108.227 219.944,109.561 218,110.5C 209.793,105.301 202.46,98.9681 196,91.5C 192.5,95 189,98.5 185.5,102C 184.5,102.667 183.5,102.667 182.5,102C 176.932,93.9558 170.932,86.4558 164.5,79.5C 165.475,69.2487 165.808,58.9154 165.5,48.5 Z"/></g>
<g><path style="opacity:1" fill="#ededed" d="M 165.5,48.5 C 165.808,58.9154 165.475,69.2487 164.5,79.5C 159.244,87.4298 153.577,95.0965 147.5,102.5C 143.524,99.8549 139.857,96.8549 136.5,93.5C 136.189,92.5222 135.522,91.8555 134.5,91.5C 127.782,98.5516 120.449,104.885 112.5,110.5C 107.114,105.41 102.947,99.4099 100,92.5C 97.5794,91.0394 95.0794,89.7061 92.5,88.5C 92.1667,89.1667 91.8333,89.8333 91.5,90.5C 92.8224,95.4342 93.8224,100.434 94.5,105.5C 93.3229,109.504 92.4896,113.504 92,117.5C 94.706,119.871 97.0394,122.537 99,125.5C 100.666,133.164 102.332,140.831 104,148.5C 104.5,149 105,149.5 105.5,150C 123.151,154.997 141.151,157.497 159.5,157.5C 161.5,157.5 163.5,157.5 165.5,157.5C 165.5,161.167 165.5,164.833 165.5,168.5C 141.833,168.5 118.167,168.5 94.5,168.5C 89.4903,140.951 84.157,113.451 78.5,86C 78.8333,85.1667 79.1667,84.3333 79.5,83.5C 108.192,71.8179 136.859,60.1513 165.5,48.5 Z"/></g>
<g><path style="opacity:1" fill="#e77401" d="M 217.5,51.5 C 219.969,54.1438 222.302,56.9772 224.5,60C 221.974,59.7381 219.64,58.9048 217.5,57.5C 216.2,56.399 215.7,55.0657 216,53.5C 218.69,55.854 219.19,55.1873 217.5,51.5 Z"/></g>
<g><path style="opacity:1" fill="#ea7901" d="M 112.5,51.5 C 112.297,53.0443 111.63,54.3777 110.5,55.5C 110.667,55.8333 110.833,56.1667 111,56.5C 112.393,53.8749 113.559,53.8749 114.5,56.5C 111.5,58.8353 108.166,60.3353 104.5,61C 107.031,57.6425 109.698,54.4758 112.5,51.5 Z"/></g>
<g><path style="opacity:1" fill="#b5b5b5" d="M 157.5,58.5 C 158.816,61.0866 159.483,64.0866 159.5,67.5C 159.333,70.5 159.167,73.5 159,76.5C 154.993,82.0008 150.827,87.3341 146.5,92.5C 142.562,89.9508 138.729,87.2842 135,84.5C 128.051,89.7782 121.384,95.4449 115,101.5C 116.667,97.1667 118.333,92.8333 120,88.5C 116.974,91.0263 113.807,93.3596 110.5,95.5C 106.628,91.4153 104.128,86.7487 103,81.5C 121.299,73.928 139.465,66.2613 157.5,58.5 Z"/></g>
<g><path style="opacity:1" fill="#e88a00" d="M 250.5,78.5 C 250.062,78.4346 249.728,78.6012 249.5,79C 250.416,79.2784 251.082,79.7784 251.5,80.5C 224.416,69.9698 197.416,59.1365 170.5,48C 167.836,46.487 165.17,46.3204 162.5,47.5C 162.843,45.5168 162.176,44.1834 160.5,43.5C 162.733,40.8122 164.733,40.9788 166.5,44C 194.703,55.2766 222.703,66.7766 250.5,78.5 Z"/></g>
<g><path style="opacity:1" fill="#cf6901" d="M 250.5,78.5 C 254.431,78.4992 256.764,80.3325 257.5,84C 251.904,113.216 246.071,142.383 240,171.5C 215.239,172.328 190.406,172.828 165.5,173C 163.679,175.137 161.346,175.97 158.5,175.5C 159.141,174.518 159.807,173.518 160.5,172.5C 138.004,171.833 115.67,171.167 93.5,170.5C 141.505,170.833 189.505,170.5 237.5,169.5C 243.441,140.628 249.441,111.794 255.5,83C 253.934,82.3918 252.6,81.5585 251.5,80.5C 251.082,79.7784 250.416,79.2784 249.5,79C 249.728,78.6012 250.062,78.4346 250.5,78.5 Z"/></g>
<g><path style="opacity:1" fill="#f27601" d="M 176.5,144.5 C 188.216,139.928 200.216,135.928 212.5,132.5C 212.782,129.653 212.782,126.987 212.5,124.5C 203.396,131.109 193.396,133.609 182.5,132C 180.578,130.58 179.245,128.747 178.5,126.5C 177.522,126.977 176.689,127.643 176,128.5C 175.667,131.167 175.333,133.833 175,136.5C 171.667,138.667 168.834,141.334 166.5,144.5C 165.5,144.5 164.5,144.5 163.5,144.5C 163.056,135.167 160.389,126.5 155.5,118.5C 155.846,117.304 156.346,117.304 157,118.5C 158.752,121.672 160.752,124.672 163,127.5C 163.717,126.956 164.217,126.289 164.5,125.5C 168.463,121.605 171.463,116.938 173.5,111.5C 171.614,106.06 168.947,101.06 165.5,96.5C 164.479,97.9014 163.479,99.2347 162.5,100.5C 162.103,99.475 161.437,99.3083 160.5,100C 158,102.5 155.5,105 153,107.5C 155.413,102.025 158.413,96.6912 162,91.5C 162.765,89.9343 162.598,88.6009 161.5,87.5C 162.614,86.1147 163.614,84.6147 164.5,83C 165.167,82.3333 165.833,82.3333 166.5,83C 172.667,91.1667 178.833,99.3333 185,107.5C 184.093,112.297 182.927,117.13 181.5,122C 184.016,130.888 189.35,132.888 197.5,128C 213.637,121.03 225.304,109.53 232.5,93.5C 233.628,92.7379 234.795,92.0712 236,91.5C 233.836,101.333 230.836,110.999 227,120.5C 225.529,118.128 224.363,118.128 223.5,120.5C 225.863,129.415 224.363,130.415 219,123.5C 218.281,127.145 217.781,130.812 217.5,134.5C 204.159,139.102 190.492,142.436 176.5,144.5 Z"/></g>
<g><path style="opacity:1" fill="#f9af0c" d="M 161.5,87.5 C 162.598,88.6009 162.765,89.9343 162,91.5C 158.413,96.6912 155.413,102.025 153,107.5C 155.5,105 158,102.5 160.5,100C 161.437,99.3083 162.103,99.475 162.5,100.5C 160.891,104.217 158.891,107.717 156.5,111C 159.396,115.723 162.062,120.557 164.5,125.5C 164.217,126.289 163.717,126.956 163,127.5C 160.752,124.672 158.752,121.672 157,118.5C 156.346,117.304 155.846,117.304 155.5,118.5C 160.389,126.5 163.056,135.167 163.5,144.5C 156.11,144.764 148.777,144.43 141.5,143.5C 129.713,142.069 118.046,140.069 106.5,137.5C 103.152,123.78 99.9849,110.113 97,96.5C 98.7186,99.2879 100.885,101.621 103.5,103.5C 107.433,109.102 112.099,114.102 117.5,118.5C 125.126,125.478 134.126,129.478 144.5,130.5C 147.695,131.039 150.195,130.039 152,127.5C 151.725,121.221 150.559,115.054 148.5,109C 150.646,105.207 152.646,101.374 154.5,97.5C 155.906,97.0269 156.573,96.0269 156.5,94.5C 157.921,91.9906 159.588,89.6572 161.5,87.5 Z"/></g>
<g><path style="opacity:1" fill="#f5f5f5" d="M 265.5,78.5 C 265.286,80.1439 265.62,81.6439 266.5,83C 265.833,83.6667 265.167,84.3333 264.5,85C 267.044,87.2221 267.044,89.3888 264.5,91.5C 265.517,94.028 266.684,94.028 268,91.5C 269.333,94.1667 270.667,94.1667 272,91.5C 273.333,94.1667 274.667,94.1667 276,91.5C 277.333,94.1667 278.667,94.1667 280,91.5C 281.333,94.1667 282.667,94.1667 284,91.5C 285.333,94.1667 286.667,94.1667 288,91.5C 289.333,94.1667 290.667,94.1667 292,91.5C 293.333,94.1667 294.667,94.1667 296,91.5C 297.333,94.1667 298.667,94.1667 300,91.5C 301.333,94.1667 302.667,94.1667 304,91.5C 305.333,94.1667 306.667,94.1667 308,91.5C 309.333,94.1667 310.667,94.1667 312,91.5C 313.333,94.1667 314.667,94.1667 316,91.5C 317.333,94.1667 318.667,94.1667 320,91.5C 321.333,94.1667 322.667,94.1667 324,91.5C 325.333,94.1667 326.667,94.1667 328,91.5C 329.039,92.7101 330.206,93.7101 331.5,94.5C 331.5,153.167 331.5,211.833 331.5,270.5C 329.932,268.069 328.432,268.069 327,270.5C 325.667,267.833 324.333,267.833 323,270.5C 321.667,267.833 320.333,267.833 319,270.5C 317.667,267.833 316.333,267.833 315,270.5C 313.667,267.833 312.333,267.833 311,270.5C 309.667,267.833 308.333,267.833 307,270.5C 305.667,267.833 304.333,267.833 303,270.5C 301.667,267.833 300.333,267.833 299,270.5C 297.667,267.833 296.333,267.833 295,270.5C 293.812,269.437 293.312,268.103 293.5,266.5C 293.666,261.489 293.499,256.489 293,251.5C 291.326,247.911 288.493,246.245 284.5,246.5C 284.337,244.143 284.503,241.81 285,239.5C 288.833,237 292.667,234.5 296.5,232C 292.514,231.501 288.514,231.334 284.5,231.5C 284.666,221.494 284.5,211.494 284,201.5C 282.749,198.619 280.583,196.786 277.5,196C 263.434,195.687 249.434,195.52 235.5,195.5C 235.785,193.712 235.452,192.045 234.5,190.5C 229.402,194.834 223.402,196.834 216.5,196.5C 198.525,195.36 180.525,195.193 162.5,196C 159.408,197.423 157.408,199.757 156.5,203C 155.207,203.49 153.873,203.657 152.5,203.5C 152.731,200.215 151.397,197.715 148.5,196C 135.833,195.333 123.167,195.333 110.5,196C 109.975,196.692 109.308,197.192 108.5,197.5C 102.766,195.361 96.7661,194.195 90.5,194C 90,193.5 89.5,193 89,192.5C 86.0627,195.716 82.5627,198.049 78.5,199.5C 74.6888,198.093 71.0221,196.427 67.5,194.5C 60.0152,194.804 52.3485,195.304 44.5,196C 41.5534,199.014 37.8867,200.348 33.5,200C 37.8006,201.785 39.8006,204.952 39.5,209.5C 38.1266,209.343 36.7932,209.51 35.5,210C 38.9663,213.04 40.2996,216.874 39.5,221.5C 36.2027,221.329 35.8694,221.995 38.5,223.5C 39.1977,238.533 39.8644,253.533 40.5,268.5C 39.7211,270.927 38.5545,270.927 37,268.5C 35.6667,271.167 34.3333,271.167 33,268.5C 31.6667,271.167 30.3333,271.167 29,268.5C 27.6667,271.167 26.3333,271.167 25,268.5C 23.6667,271.167 22.3333,271.167 21,268.5C 19.6667,271.167 18.3333,271.167 17,268.5C 15.6667,271.167 14.3333,271.167 13,268.5C 11.6667,271.167 10.3333,271.167 9,268.5C 7.66667,271.167 6.33333,271.167 5,268.5C 4.33333,269.167 3.66667,269.833 3,270.5C 1.9609,269.29 0.794229,268.29 -0.5,267.5C -0.5,208.833 -0.5,150.167 -0.5,91.5C 0.458367,91.9528 1.2917,92.6195 2,93.5C 3.33333,90.8333 4.66667,90.8333 6,93.5C 7.33333,90.8333 8.66667,90.8333 10,93.5C 11.3333,90.8333 12.6667,90.8333 14,93.5C 15.3333,90.8333 16.6667,90.8333 18,93.5C 19.3333,90.8333 20.6667,90.8333 22,93.5C 23.3333,90.8333 24.6667,90.8333 26,93.5C 27.3333,90.8333 28.6667,90.8333 30,93.5C 31.3333,90.8333 32.6667,90.8333 34,93.5C 35.3333,90.8333 36.6667,90.8333 38,93.5C 39.3333,90.8333 40.6667,90.8333 42,93.5C 43.3333,90.8333 44.6667,90.8333 46,93.5C 47.3333,90.8333 48.6667,90.8333 50,93.5C 51.3333,90.8333 52.6667,90.8333 54,93.5C 55.3333,90.8333 56.6667,90.8333 58,93.5C 59.3333,90.8333 60.6667,90.8333 62,93.5C 63.3333,90.8333 64.6667,90.8333 66,93.5C 67.2692,92.0953 67.7692,90.4286 67.5,88.5C 72.9874,112.935 77.9874,137.602 82.5,162.5C 82.4847,164.634 81.9847,166.634 81,168.5C 77.9465,171.887 75.2798,175.553 73,179.5C 71.6764,186.505 74.5098,189.005 81.5,187C 85.5,184.667 89.5,182.333 93.5,180C 141.167,179.333 188.833,179.333 236.5,180C 240.963,183.565 245.963,186.065 251.5,187.5C 255.028,187.637 257.028,185.97 257.5,182.5C 254.419,176.669 251.085,171.002 247.5,165.5C 253.269,136.317 259.269,107.317 265.5,78.5 Z"/></g>
<g><path style="opacity:1" fill="#0c0805" d="M 164.5,79.5 C 170.932,86.4558 176.932,93.9558 182.5,102C 183.5,102.667 184.5,102.667 185.5,102C 189,98.5 192.5,95 196,91.5C 202.46,98.9681 209.793,105.301 218,110.5C 219.944,109.561 221.611,108.227 223,106.5C 226.212,101.913 229.045,97.0799 231.5,92C 233.955,90.6884 236.455,89.5218 239,88.5C 238.594,94.2451 237.428,99.9118 235.5,105.5C 236.985,109.105 238.319,112.772 239.5,116.5C 237.183,119.317 234.683,121.984 232,124.5C 230.033,132.672 228.2,140.838 226.5,149C 206.59,154.582 186.257,157.416 165.5,157.5C 163.5,157.5 161.5,157.5 159.5,157.5C 159.833,156.833 160.167,156.167 160.5,155.5C 162.681,155.716 164.347,154.883 165.5,153C 184.075,152.484 202.408,150.151 220.5,146C 222.5,144 224.5,142 226.5,140C 223.581,139.567 220.914,140.067 218.5,141.5C 193.031,146.369 167.364,147.702 141.5,145.5C 141.5,144.833 141.5,144.167 141.5,143.5C 148.777,144.43 156.11,144.764 163.5,144.5C 164.5,144.5 165.5,144.5 166.5,144.5C 169.833,144.5 173.167,144.5 176.5,144.5C 190.492,142.436 204.159,139.102 217.5,134.5C 217.781,130.812 218.281,127.145 219,123.5C 224.363,130.415 225.863,129.415 223.5,120.5C 224.363,118.128 225.529,118.128 227,120.5C 230.836,110.999 233.836,101.333 236,91.5C 234.795,92.0712 233.628,92.7379 232.5,93.5C 225.304,109.53 213.637,121.03 197.5,128C 189.35,132.888 184.016,130.888 181.5,122C 182.927,117.13 184.093,112.297 185,107.5C 178.833,99.3333 172.667,91.1667 166.5,83C 165.833,82.3333 165.167,82.3333 164.5,83C 163.614,84.6147 162.614,86.1147 161.5,87.5C 159.588,89.6572 157.921,91.9906 156.5,94.5C 155.094,94.9731 154.427,95.9731 154.5,97.5C 150.968,100.871 147.968,104.705 145.5,109C 147.142,113.232 148.475,117.565 149.5,122C 148.966,125.578 147.299,128.411 144.5,130.5C 134.126,129.478 125.126,125.478 117.5,118.5C 117.5,117.833 117.833,117.5 118.5,117.5C 120.332,118.248 121.999,119.248 123.5,120.5C 128.107,124.491 133.441,125.824 139.5,124.5C 141.024,119.223 140.358,114.223 137.5,109.5C 138.711,108.126 139.711,106.626 140.5,105C 138.942,101.387 137.275,97.8867 135.5,94.5C 135.5,93.8333 135.833,93.5 136.5,93.5C 139.857,96.8549 143.524,99.8549 147.5,102.5C 153.577,95.0965 159.244,87.4298 164.5,79.5 Z"/></g>
<g><path style="opacity:1" fill="#170b00" d="M 165.5,87.5 C 170.965,91.4306 173.465,96.764 173,103.5C 169.114,98.7324 166.614,93.399 165.5,87.5 Z"/></g>
<g><path style="opacity:1" fill="#f37601" d="M 135.5,94.5 C 137.275,97.8867 138.942,101.387 140.5,105C 139.711,106.626 138.711,108.126 137.5,109.5C 140.358,114.223 141.024,119.223 139.5,124.5C 133.441,125.824 128.107,124.491 123.5,120.5C 136.528,123.814 139.528,119.814 132.5,108.5C 133.833,106.833 135.167,105.167 136.5,103.5C 135.5,101.187 134.166,99.1868 132.5,97.5C 132.5,95.5 133.5,94.5 135.5,94.5 Z"/></g>
<g><path style="opacity:1" fill="#cdbfa2" d="M 156.5,94.5 C 156.573,96.0269 155.906,97.0269 154.5,97.5C 154.427,95.9731 155.094,94.9731 156.5,94.5 Z"/></g>
<g><path style="opacity:1" fill="#ef7401" d="M 185.5,104.5 C 186.496,104.414 187.329,104.748 188,105.5C 188.333,108.5 188.667,111.5 189,114.5C 190.792,110.872 193.625,108.539 197.5,107.5C 196.03,103.952 195.03,100.285 194.5,96.5C 195.008,94.7673 195.841,94.434 197,95.5C 198.439,101.658 200.939,107.325 204.5,112.5C 201.762,113.493 199.095,113.159 196.5,111.5C 193.812,114.354 191.312,117.354 189,120.5C 188.333,119.833 187.667,119.167 187,118.5C 186.667,114.5 186.333,110.5 186,106.5C 184.62,105.744 184.453,105.078 185.5,104.5 Z"/></g>
<g><path style="opacity:1" fill="#fdb105" d="M 132.5,97.5 C 134.166,99.1868 135.5,101.187 136.5,103.5C 135.167,105.167 133.833,106.833 132.5,108.5C 139.528,119.814 136.528,123.814 123.5,120.5C 121.999,119.248 120.332,118.248 118.5,117.5C 117.833,116.5 117.167,115.5 116.5,114.5C 121.171,109.826 125.504,104.826 129.5,99.5C 130.5,98.8333 131.5,98.1667 132.5,97.5 Z"/></g>
<g><path style="opacity:1" fill="#fdae03" d="M 194.5,96.5 C 195.03,100.285 196.03,103.952 197.5,107.5C 193.625,108.539 190.792,110.872 189,114.5C 188.667,111.5 188.333,108.5 188,105.5C 187.329,104.748 186.496,104.414 185.5,104.5C 185.5,103.833 185.833,103.5 186.5,103.5C 190.249,103.383 192.249,101.383 192.5,97.5C 193.167,97.1667 193.833,96.8333 194.5,96.5 Z"/></g>
<g><path style="opacity:1" fill="#d9d0bc" d="M 192.5,97.5 C 192.249,101.383 190.249,103.383 186.5,103.5C 188.167,101.167 190.167,99.1667 192.5,97.5 Z"/></g>
<g><path style="opacity:1" fill="#e8e2d7" d="M 129.5,99.5 C 125.504,104.826 121.171,109.826 116.5,114.5C 114.915,113.998 114.415,112.998 115,111.5C 119.707,107.288 124.54,103.288 129.5,99.5 Z"/></g>
<g><path style="opacity:1" fill="#e5e1da" d="M 154.5,97.5 C 152.646,101.374 150.646,105.207 148.5,109C 150.559,115.054 151.725,121.221 152,127.5C 150.195,130.039 147.695,131.039 144.5,130.5C 147.299,128.411 148.966,125.578 149.5,122C 148.475,117.565 147.142,113.232 145.5,109C 147.968,104.705 150.968,100.871 154.5,97.5 Z"/></g>
<g><path style="opacity:1" fill="#e0dbd2" d="M 103.5,103.5 C 100.885,101.621 98.7186,99.2879 97,96.5C 99.9849,110.113 103.152,123.78 106.5,137.5C 104.876,137.64 103.71,136.973 103,135.5C 100.151,121.085 96.9839,106.752 93.5,92.5C 95.595,91.7706 97.4284,92.4372 99,94.5C 100.527,97.5531 102.027,100.553 103.5,103.5 Z"/></g>
<g><path style="opacity:1" fill="#1a130b" d="M 164.5,125.5 C 162.062,120.557 159.396,115.723 156.5,111C 158.891,107.717 160.891,104.217 162.5,100.5C 163.479,99.2347 164.479,97.9014 165.5,96.5C 168.947,101.06 171.614,106.06 173.5,111.5C 171.463,116.938 168.463,121.605 164.5,125.5 Z"/></g>
<g><path style="opacity:1" fill="#fdb31a" d="M 163.5,106.5 C 165.006,110.812 165.339,115.145 164.5,119.5C 163.599,118.71 162.932,117.71 162.5,116.5C 160.891,112.857 161.224,109.524 163.5,106.5 Z"/></g>
<g><path style="opacity:1" fill="#e1dcd2" d="M 163.5,104.5 C 163.5,105.167 163.5,105.833 163.5,106.5C 161.224,109.524 160.891,112.857 162.5,116.5C 158.536,112.292 158.869,108.292 163.5,104.5 Z"/></g>
<g><path style="opacity:1" fill="#eb7c0d" d="M 164.5,119.5 C 165.339,115.145 165.006,110.812 163.5,106.5C 163.5,105.833 163.5,105.167 163.5,104.5C 163.415,103.005 164.081,102.005 165.5,101.5C 168.771,105.427 169.104,108.76 166.5,111.5C 167.927,115.125 167.427,118.458 165,121.5C 164.536,120.906 164.369,120.239 164.5,119.5 Z"/></g>
<g><path style="opacity:1" fill="#f67a01" d="M 105.5,112.5 C 116.23,121.384 127.896,128.884 140.5,135C 131.947,136.836 123.281,136.836 114.5,135C 108.867,128.611 105.867,121.111 105.5,112.5 Z"/></g>
<g><path style="opacity:1" fill="#d47306" d="M 234.5,110.5 C 238.865,114.636 238.365,118.302 233,121.5C 233.573,117.909 234.073,114.242 234.5,110.5 Z"/></g>
<g><path style="opacity:1" fill="#140900" d="M 129.5,132.5 C 128.432,133.434 127.099,133.768 125.5,133.5C 116.244,133.294 111.077,128.627 110,119.5C 115.439,125.467 121.939,129.8 129.5,132.5 Z"/></g>
<g><path style="opacity:1" fill="#180c01" d="M 171.5,123.5 C 172.043,123.56 172.376,123.893 172.5,124.5C 171.248,126.735 170.748,129.069 171,131.5C 172.668,128.79 173.501,128.957 173.5,132C 171.412,135.094 168.912,137.928 166,140.5C 165.333,137.5 165.333,134.5 166,131.5C 168.054,128.953 169.887,126.286 171.5,123.5 Z"/></g>
<g><path style="opacity:1" fill="#fdb20a" d="M 176.5,144.5 C 173.167,144.5 169.833,144.5 166.5,144.5C 168.834,141.334 171.667,138.667 175,136.5C 175.333,133.833 175.667,131.167 176,128.5C 176.689,127.643 177.522,126.977 178.5,126.5C 179.245,128.747 180.578,130.58 182.5,132C 193.396,133.609 203.396,131.109 212.5,124.5C 212.782,126.987 212.782,129.653 212.5,132.5C 200.216,135.928 188.216,139.928 176.5,144.5 Z"/></g>
<g><path style="opacity:1" fill="#1a1917" d="M 136.5,93.5 C 135.833,93.5 135.5,93.8333 135.5,94.5C 133.5,94.5 132.5,95.5 132.5,97.5C 131.5,98.1667 130.5,98.8333 129.5,99.5C 124.54,103.288 119.707,107.288 115,111.5C 114.415,112.998 114.915,113.998 116.5,114.5C 117.167,115.5 117.833,116.5 118.5,117.5C 117.833,117.5 117.5,117.833 117.5,118.5C 112.099,114.102 107.433,109.102 103.5,103.5C 102.027,100.553 100.527,97.5531 99,94.5C 97.4284,92.4372 95.595,91.7706 93.5,92.5C 96.9839,106.752 100.151,121.085 103,135.5C 103.71,136.973 104.876,137.64 106.5,137.5C 118.046,140.069 129.713,142.069 141.5,143.5C 141.5,144.167 141.5,144.833 141.5,145.5C 129.295,144.709 117.295,142.709 105.5,139.5C 105.167,140 104.833,140.5 104.5,141C 105.127,143.135 105.627,145.302 106,147.5C 118.85,151.436 132.017,153.769 145.5,154.5C 150.305,155.487 155.305,155.821 160.5,155.5C 160.167,156.167 159.833,156.833 159.5,157.5C 141.151,157.497 123.151,154.997 105.5,150C 105,149.5 104.5,149 104,148.5C 102.332,140.831 100.666,133.164 99,125.5C 97.0394,122.537 94.706,119.871 92,117.5C 92.4896,113.504 93.3229,109.504 94.5,105.5C 93.8224,100.434 92.8224,95.4342 91.5,90.5C 91.8333,89.8333 92.1667,89.1667 92.5,88.5C 95.0794,89.7061 97.5794,91.0394 100,92.5C 102.947,99.4099 107.114,105.41 112.5,110.5C 120.449,104.885 127.782,98.5516 134.5,91.5C 135.522,91.8555 136.189,92.5222 136.5,93.5 Z"/></g>
<g><path style="opacity:1" fill="#cf6a01" d="M 95.5,109.5 C 97.1542,113.268 97.9875,117.268 98,121.5C 94.3533,118.171 93.52,114.171 95.5,109.5 Z"/></g>
<g><path style="opacity:1" fill="#643105" d="M 129.5,132.5 C 131.086,133.148 132.753,133.648 134.5,134C 131.304,134.805 128.304,134.638 125.5,133.5C 127.099,133.768 128.432,133.434 129.5,132.5 Z"/></g>
<g><path style="opacity:1" fill="#f2ebdd" d="M 152.5,133.5 C 157.649,133.651 159.982,136.318 159.5,141.5C 152.751,141.384 146.084,140.551 139.5,139C 144.607,138.774 148.94,136.941 152.5,133.5 Z"/></g>
<g><path style="opacity:1" fill="#f1ebe0" d="M 178.5,135.5 C 181.874,135.674 185.207,136.174 188.5,137C 183.706,139.38 178.706,140.713 173.5,141C 175.373,139.296 177.04,137.463 178.5,135.5 Z"/></g>
<g><path style="opacity:1" fill="#ececec" d="M 141.5,145.5 C 167.364,147.702 193.031,146.369 218.5,141.5C 218.938,141.435 219.272,141.601 219.5,142C 217.632,144.789 214.966,146.122 211.5,146C 195.26,148.523 178.927,150.023 162.5,150.5C 161.96,151.748 161.293,152.915 160.5,154C 155.511,154.499 150.511,154.666 145.5,154.5C 132.017,153.769 118.85,151.436 106,147.5C 105.627,145.302 105.127,143.135 104.5,141C 104.833,140.5 105.167,140 105.5,139.5C 117.295,142.709 129.295,144.709 141.5,145.5 Z"/></g>
<g><path style="opacity:1" fill="#ababab" d="M 160.5,155.5 C 155.305,155.821 150.305,155.487 145.5,154.5C 150.511,154.666 155.511,154.499 160.5,154C 161.293,152.915 161.96,151.748 162.5,150.5C 178.927,150.023 195.26,148.523 211.5,146C 214.966,146.122 217.632,144.789 219.5,142C 219.272,141.601 218.938,141.435 218.5,141.5C 220.914,140.067 223.581,139.567 226.5,140C 224.5,142 222.5,144 220.5,146C 202.408,150.151 184.075,152.484 165.5,153C 164.347,154.883 162.681,155.716 160.5,155.5 Z"/></g>
<g><path style="opacity:1" fill="#b9b9b9" d="M 112.5,156.5 C 127.961,159.872 143.628,161.539 159.5,161.5C 159.5,162.5 159.5,163.5 159.5,164.5C 144.818,164.833 130.152,164.499 115.5,163.5C 114.212,161.261 113.212,158.928 112.5,156.5 Z"/></g>
<g><path style="opacity:1" fill="#a2a2a2" d="M 83.5,172.5 C 84.9931,173.312 85.6598,174.645 85.5,176.5C 84.3764,179.503 82.2097,181.503 79,182.5C 78.5,182.167 78,181.833 77.5,181.5C 79.5258,178.482 81.5258,175.482 83.5,172.5 Z"/></g>
<g><path style="opacity:1" fill="#a0a0a0" d="M 245.5,173.5 C 247.829,175.841 249.829,178.508 251.5,181.5C 249.836,182.223 248.169,181.89 246.5,180.5C 245.526,178.257 245.192,175.924 245.5,173.5 Z"/></g>
<g><path style="opacity:1" fill="#090704" d="M 293.5,266.5 C 292.348,269.815 290.015,271.982 286.5,273C 269.253,273.958 251.92,274.291 234.5,274C 233.29,275.039 232.29,276.206 231.5,277.5C 230.835,275.631 230.169,273.631 229.5,271.5C 228.893,271.624 228.56,271.957 228.5,272.5C 228.167,272.5 227.833,272.5 227.5,272.5C 222.833,272.5 218.167,272.5 213.5,272.5C 213.795,274.735 213.461,276.735 212.5,278.5C 207.882,274.016 202.215,272.016 195.5,272.5C 195.288,277.238 194.288,277.905 192.5,274.5C 190.5,274.167 188.5,273.833 186.5,273.5C 178.541,273.184 170.541,273.017 162.5,273C 159.572,271.74 157.739,269.573 157,266.5C 156.5,260.175 156.334,253.842 156.5,247.5C 154.076,247.192 151.743,247.526 149.5,248.5C 152.106,254.588 153.273,260.921 153,267.5C 152.215,269.286 151.049,270.786 149.5,272C 138.992,272.34 128.492,272.84 118,273.5C 114.173,273.592 110.507,272.926 107,271.5C 103.094,272.819 99.0939,273.819 95,274.5C 90.9203,273.82 86.9203,272.82 83,271.5C 76.3068,273.799 69.4735,274.132 62.5,272.5C 57.9284,273.005 53.4284,273.672 49,274.5C 45.781,273.125 42.9477,271.125 40.5,268.5C 39.8644,253.533 39.1977,238.533 38.5,223.5C 35.8694,221.995 36.2027,221.329 39.5,221.5C 40.2996,216.874 38.9663,213.04 35.5,210C 36.7932,209.51 38.1266,209.343 39.5,209.5C 39.8006,204.952 37.8006,201.785 33.5,200C 37.8867,200.348 41.5534,199.014 44.5,196C 52.3485,195.304 60.0152,194.804 67.5,194.5C 71.0221,196.427 74.6888,198.093 78.5,199.5C 82.5627,198.049 86.0627,195.716 89,192.5C 89.5,193 90,193.5 90.5,194C 96.7661,194.195 102.766,195.361 108.5,197.5C 109.308,197.192 109.975,196.692 110.5,196C 123.167,195.333 135.833,195.333 148.5,196C 151.397,197.715 152.731,200.215 152.5,203.5C 153.873,203.657 155.207,203.49 156.5,203C 157.408,199.757 159.408,197.423 162.5,196C 180.525,195.193 198.525,195.36 216.5,196.5C 223.402,196.834 229.402,194.834 234.5,190.5C 235.452,192.045 235.785,193.712 235.5,195.5C 249.434,195.52 263.434,195.687 277.5,196C 280.583,196.786 282.749,198.619 284,201.5C 284.5,211.494 284.666,221.494 284.5,231.5C 288.514,231.334 292.514,231.501 296.5,232C 292.667,234.5 288.833,237 285,239.5C 284.503,241.81 284.337,244.143 284.5,246.5C 288.493,246.245 291.326,247.911 293,251.5C 293.499,256.489 293.666,261.489 293.5,266.5 Z"/></g>
<g><path style="opacity:1" fill="#f5ad00" d="M 80.5,219.5 C 81.2216,219.082 81.7216,218.416 82,217.5C 83.8163,220.83 84.8163,224.164 85,227.5C 86.4973,225.041 86.664,222.541 85.5,220C 86.7689,217.916 87.7689,215.749 88.5,213.5C 92.449,213.307 92.449,212.807 88.5,212C 90.1044,210.763 91.771,209.597 93.5,208.5C 93.1924,207.692 92.6924,207.025 92,206.5C 90.1792,209.149 87.6792,210.816 84.5,211.5C 82.9253,218.035 81.9253,218.035 81.5,211.5C 82.9274,208.236 85.2608,205.736 88.5,204C 95.564,202.255 101.731,203.755 107,208.5C 108.636,224.741 108.97,241.075 108,257.5C 104.024,264.236 98.1906,266.736 90.5,265C 85.3333,263.833 82.1667,260.667 81,255.5C 80.5001,243.505 80.3335,231.505 80.5,219.5 Z"/></g>
<g><path style="opacity:1" fill="#7e5900" d="M 132.5,204.5 C 136.298,203.517 140.298,203.183 144.5,203.5C 144.737,204.791 144.404,205.791 143.5,206.5C 140.316,204.586 136.649,203.92 132.5,204.5 Z"/></g>
<g><path style="opacity:1" fill="#f2aa00" d="M 48.5,203.5 C 73.2581,199.765 82.4248,210.098 76,234.5C 74.8333,236.167 73.6667,237.833 72.5,239.5C 74.6439,247.741 76.3105,256.075 77.5,264.5C 73.8333,264.5 70.1667,264.5 66.5,264.5C 64.9095,256.88 63.5761,249.214 62.5,241.5C 61.5,241.5 60.5,241.5 59.5,241.5C 59.5,249.167 59.5,256.833 59.5,264.5C 55.8333,264.5 52.1667,264.5 48.5,264.5C 48.5,244.167 48.5,223.833 48.5,203.5 Z"/></g>
<g><path style="opacity:1" fill="#f6ad00" d="M 124.5,204.5 C 124.169,212.528 124.502,220.528 125.5,228.5C 128.08,220.62 130.413,212.62 132.5,204.5C 136.649,203.92 140.316,204.586 143.5,206.5C 142.962,208.117 142.629,209.784 142.5,211.5C 139.84,210.653 137.174,210.153 134.5,210C 136.878,210.974 136.544,211.641 133.5,212C 134.973,212.71 135.64,213.876 135.5,215.5C 137.981,215.677 139.814,214.677 141,212.5C 141.399,212.728 141.565,213.062 141.5,213.5C 139.429,220.05 137.763,226.716 136.5,233.5C 139.584,243.749 142.251,254.082 144.5,264.5C 140.445,264.824 136.445,264.491 132.5,263.5C 125.885,229.917 123.219,230.251 124.5,264.5C 120.833,264.5 117.167,264.5 113.5,264.5C 113.5,254.5 113.5,244.5 113.5,234.5C 114.494,224.681 114.827,214.681 114.5,204.5C 117.833,204.5 121.167,204.5 124.5,204.5 Z"/></g>
<g><path style="opacity:1" fill="#f3ab00" d="M 165.5,203.5 C 172.09,203.189 178.59,203.522 185,204.5C 186.366,220.82 187.532,237.154 188.5,253.5C 189.516,237.157 190.683,220.824 192,204.5C 198.41,203.522 204.91,203.189 211.5,203.5C 211.5,223.833 211.5,244.167 211.5,264.5C 207.833,264.5 204.167,264.5 200.5,264.5C 200.667,248.497 200.5,232.497 200,216.5C 198.213,232.477 196.713,248.477 195.5,264.5C 190.833,264.5 186.167,264.5 181.5,264.5C 180.221,248.488 178.721,232.488 177,216.5C 176.5,232.497 176.333,248.497 176.5,264.5C 172.833,264.5 169.167,264.5 165.5,264.5C 165.5,244.167 165.5,223.833 165.5,203.5 Z"/></g>
<g><path style="opacity:1" fill="#efa800" d="M 244.5,258.5 C 244.631,259.239 244.464,259.906 244,260.5C 243.228,259.151 242.061,258.318 240.5,258C 242.158,257.275 242.658,256.108 242,254.5C 241.692,255.308 241.192,255.975 240.5,256.5C 239.41,255.609 239.41,254.609 240.5,253.5C 239.675,252.614 238.675,252.281 237.5,252.5C 237.137,250.089 238.137,248.589 240.5,248C 235.893,245.883 234.559,247.383 236.5,252.5C 234.615,253.197 234.282,254.197 235.5,255.5C 235.058,256.739 234.391,257.739 233.5,258.5C 233.5,256.833 233.5,255.167 233.5,253.5C 233.5,252.167 233.5,250.833 233.5,249.5C 230.941,249.198 228.607,249.532 226.5,250.5C 226.002,255.152 225.669,259.819 225.5,264.5C 221.833,264.5 218.167,264.5 214.5,264.5C 215.399,253.109 216.732,241.775 218.5,230.5C 219.222,230.918 219.722,231.584 220,232.5C 221.32,232.201 222.82,232.034 224.5,232C 223.944,231.617 223.611,231.117 223.5,230.5C 224.167,229.833 224.833,229.167 225.5,228.5C 225.607,226.621 225.107,226.288 224,227.5C 222.582,224.999 221.582,225.332 221,228.5C 219.731,227.095 219.231,225.429 219.5,223.5C 220.227,216.842 220.893,210.175 221.5,203.5C 227.167,203.5 232.833,203.5 238.5,203.5C 241.24,221.753 243.24,240.086 244.5,258.5 Z"/></g>
<g><path style="opacity:1" fill="#f4ac00" d="M 248.5,203.5 C 252.167,203.5 255.833,203.5 259.5,203.5C 259.5,223.833 259.5,244.167 259.5,264.5C 255.833,264.5 252.167,264.5 248.5,264.5C 248.5,244.167 248.5,223.833 248.5,203.5 Z"/></g>
<g><path style="opacity:1" fill="#f1aa00" d="M 264.5,204.5 C 268.167,204.5 271.833,204.5 275.5,204.5C 275.5,221.167 275.5,237.833 275.5,254.5C 278.5,254.5 281.5,254.5 284.5,254.5C 284.5,257.833 284.5,261.167 284.5,264.5C 277.833,264.5 271.167,264.5 264.5,264.5C 264.5,244.5 264.5,224.5 264.5,204.5 Z"/></g>
<g><path style="opacity:1" fill="#b27d00" d="M 124.5,204.5 C 121.167,204.5 117.833,204.5 114.5,204.5C 114.827,214.681 114.494,224.681 113.5,234.5C 113.5,224.167 113.5,213.833 113.5,203.5C 117.371,203.185 121.038,203.518 124.5,204.5 Z"/></g>
<g><path style="opacity:1" fill="#ececec" d="M 155.5,210.5 C 156.477,213.287 156.81,216.287 156.5,219.5C 148.978,217.43 148.644,214.43 155.5,210.5 Z"/></g>
<g><path style="opacity:1" fill="#150e02" d="M 92.5,213.5 C 94.4672,213.261 96.3005,213.594 98,214.5C 98.6667,227.5 98.6667,240.5 98,253.5C 96,256.167 94,256.167 92,253.5C 91.1865,240.092 91.3532,226.758 92.5,213.5 Z"/></g>
<g><path style="opacity:1" fill="#ad7901" d="M 142.5,211.5 C 142.672,212.492 142.338,213.158 141.5,213.5C 141.565,213.062 141.399,212.728 141,212.5C 139.814,214.677 137.981,215.677 135.5,215.5C 135.64,213.876 134.973,212.71 133.5,212C 136.544,211.641 136.878,210.974 134.5,210C 137.174,210.153 139.84,210.653 142.5,211.5 Z"/></g>
<g><path style="opacity:1" fill="#000000" d="M 63.5,214.5 C 64.5,214.833 65.1667,215.5 65.5,216.5C 65.6658,221.179 65.4992,225.845 65,230.5C 63.3005,231.406 61.4672,231.739 59.5,231.5C 59.5,229.167 59.5,226.833 59.5,224.5C 59.5,221.167 59.5,217.833 59.5,214.5C 60.8333,214.5 62.1667,214.5 63.5,214.5 Z"/></g>
<g><path style="opacity:1" fill="#aa7801" d="M 80.5,219.5 C 80.1936,216.615 80.5269,213.948 81.5,211.5C 81.9253,218.035 82.9253,218.035 84.5,211.5C 87.6792,210.816 90.1792,209.149 92,206.5C 92.6924,207.025 93.1924,207.692 93.5,208.5C 91.771,209.597 90.1044,210.763 88.5,212C 92.449,212.807 92.449,213.307 88.5,213.5C 87.7689,215.749 86.7689,217.916 85.5,220C 86.664,222.541 86.4973,225.041 85,227.5C 84.8163,224.164 83.8163,220.83 82,217.5C 81.7216,218.416 81.2216,219.082 80.5,219.5 Z"/></g>
<g><path style="opacity:1" fill="#af7b00" d="M 63.5,214.5 C 62.1667,214.5 60.8333,214.5 59.5,214.5C 59.5,217.833 59.5,221.167 59.5,224.5C 58.5184,221.038 58.185,217.371 58.5,213.5C 60.4147,213.216 62.0813,213.549 63.5,214.5 Z"/></g>
<g><path style="opacity:1" fill="#170f02" d="M 229.5,215.5 C 230.869,223.63 231.536,231.963 231.5,240.5C 230.167,240.5 228.833,240.5 227.5,240.5C 227.873,232.141 228.54,223.808 229.5,215.5 Z"/></g>
<g><path style="opacity:1" fill="#241a02" d="M 50.5,216.5 C 52.4646,216.948 52.7979,217.948 51.5,219.5C 50.6143,218.675 50.281,217.675 50.5,216.5 Z"/></g>
<g><path style="opacity:1" fill="#281c02" d="M 267.5,219.5 C 268.833,219.5 270.167,219.5 271.5,219.5C 271.719,220.675 271.386,221.675 270.5,222.5C 268.787,222.121 267.787,221.121 267.5,219.5 Z"/></g>
<g><path style="opacity:1" fill="#684903" d="M 255.5,227.5 C 254.493,226.299 252.827,226.299 250.5,227.5C 251.118,222.896 253.118,222.229 256.5,225.5C 256.137,226.183 255.804,226.85 255.5,227.5 Z"/></g>
<g><path style="opacity:1" fill="#f3ab00" d="M 146.5,228.5 C 151.5,228.5 156.5,228.5 161.5,228.5C 161.5,231.833 161.5,235.167 161.5,238.5C 156.5,238.5 151.5,238.5 146.5,238.5C 146.5,235.167 146.5,231.833 146.5,228.5 Z"/></g>
<g><path style="opacity:1" fill="#a97700" d="M 255.5,227.5 C 256.239,227.369 256.906,227.536 257.5,228C 256.89,229.947 256.057,231.781 255,233.5C 253.283,231.623 251.783,229.623 250.5,227.5C 252.827,226.299 254.493,226.299 255.5,227.5 Z"/></g>
<g><path style="opacity:1" fill="#b88100" d="M 65.5,216.5 C 66.3247,220.647 66.8247,224.981 67,229.5C 67.2835,227.114 68.2835,226.448 70,227.5C 71.1133,225.671 72.6133,224.837 74.5,225C 71.084,227.254 69.084,230.42 68.5,234.5C 69.4228,235.836 69.9228,237.17 70,238.5C 69.3292,237.748 68.4959,237.414 67.5,237.5C 66.3263,238.514 65.6596,239.847 65.5,241.5C 63.9519,241.179 63.2852,240.179 63.5,238.5C 62.325,238.719 61.325,238.386 60.5,237.5C 62.061,236.653 63.561,236.986 65,238.5C 64.621,236.925 64.7877,235.425 65.5,234C 63.4982,232.981 61.4982,232.148 59.5,231.5C 61.4672,231.739 63.3005,231.406 65,230.5C 65.4992,225.845 65.6658,221.179 65.5,216.5 Z"/></g>
<g><path style="opacity:1" fill="#ad7a00" d="M 219.5,223.5 C 219.231,225.429 219.731,227.095 221,228.5C 221.582,225.332 222.582,224.999 224,227.5C 225.107,226.288 225.607,226.621 225.5,228.5C 223.692,228.491 222.025,228.991 220.5,230C 221.448,230.483 222.448,230.649 223.5,230.5C 223.611,231.117 223.944,231.617 224.5,232C 222.82,232.034 221.32,232.201 220,232.5C 219.722,231.584 219.222,230.918 218.5,230.5C 218.198,227.941 218.532,225.607 219.5,223.5 Z"/></g>
<g><path style="opacity:1" fill="#231800" d="M 225.5,228.5 C 224.833,229.167 224.167,229.833 223.5,230.5C 222.448,230.649 221.448,230.483 220.5,230C 222.025,228.991 223.692,228.491 225.5,228.5 Z"/></g>
<g><path style="opacity:1" fill="#7e5902" d="M 222.5,235.5 C 223.552,235.351 224.552,235.517 225.5,236C 225.146,237.626 225.146,239.459 225.5,241.5C 224.178,241.67 223.011,241.337 222,240.5C 222.019,238.893 222.185,237.226 222.5,235.5 Z"/></g>
<g><path style="opacity:1" fill="#6d4d05" d="M 67.5,237.5 C 68.502,240.11 68.3353,242.776 67,245.5C 65.8118,244.437 65.3118,243.103 65.5,241.5C 65.6596,239.847 66.3263,238.514 67.5,237.5 Z"/></g>
<g><path style="opacity:1" fill="#875f03" d="M 234.5,242.5 C 236.465,242.948 236.798,243.948 235.5,245.5C 233.216,244.584 232.049,245.584 232,248.5C 231.727,246.899 231.227,245.399 230.5,244C 232.058,243.79 233.391,243.29 234.5,242.5 Z"/></g>
<g><path style="opacity:1" fill="#bf8600" d="M 222.5,243.5 C 223.705,244.672 223.705,246.005 222.5,247.5C 222.833,247.833 223.167,248.167 223.5,248.5C 225.002,244.626 225.669,244.959 225.5,249.5C 223.194,249.993 220.861,250.326 218.5,250.5C 218.34,248.801 218.506,247.134 219,245.5C 220.552,245.989 221.719,245.322 222.5,243.5 Z"/></g>
<g><path style="opacity:1" fill="#251a01" d="M 272.5,248.5 C 270.632,249.674 269.632,249.007 269.5,246.5C 270.188,244.193 271.354,242.86 273,242.5C 274.119,243.552 274.619,244.719 274.5,246C 273.244,246.417 272.577,247.25 272.5,248.5 Z"/></g>
<g><path style="opacity:1" fill="#604301" d="M 226.5,250.5 C 228.607,249.532 230.941,249.198 233.5,249.5C 233.5,250.833 233.5,252.167 233.5,253.5C 232.596,252.791 232.263,251.791 232.5,250.5C 230.5,250.5 228.5,250.5 226.5,250.5 Z"/></g>
<g><path style="opacity:1" fill="#a07101" d="M 269.5,246.5 C 269.632,249.007 270.632,249.674 272.5,248.5C 273.752,250.339 273.752,252.172 272.5,254C 273.973,254.71 274.64,255.876 274.5,257.5C 273.167,258.167 271.833,258.833 270.5,259.5C 268.938,256.701 269.271,255.034 271.5,254.5C 269.615,253.803 269.282,252.803 270.5,251.5C 269.643,250.575 268.643,249.908 267.5,249.5C 266.086,247.402 266.752,246.402 269.5,246.5 Z"/></g>
<g><path style="opacity:1" fill="#725003" d="M 203.5,254.5 C 205.086,255.413 206.586,255.413 208,254.5C 209.843,257.653 209.01,258.82 205.5,258C 206.34,259.666 205.84,259.833 204,258.5C 203.51,257.207 203.343,255.873 203.5,254.5 Z"/></g>
<g><path style="opacity:1" fill="#d89800" d="M 244.5,258.5 C 245.461,260.265 245.795,262.265 245.5,264.5C 241.5,264.5 237.5,264.5 233.5,264.5C 233.5,262.5 233.5,260.5 233.5,258.5C 234.391,257.739 235.058,256.739 235.5,255.5C 234.282,254.197 234.615,253.197 236.5,252.5C 234.559,247.383 235.893,245.883 240.5,248C 238.137,248.589 237.137,250.089 237.5,252.5C 238.675,252.281 239.675,252.614 240.5,253.5C 239.41,254.609 239.41,255.609 240.5,256.5C 241.192,255.975 241.692,255.308 242,254.5C 242.658,256.108 242.158,257.275 240.5,258C 242.061,258.318 243.228,259.151 244,260.5C 244.464,259.906 244.631,259.239 244.5,258.5 Z"/></g>
<g><path style="opacity:1" fill="#382702" d="M 267.5,249.5 C 268.643,249.908 269.643,250.575 270.5,251.5C 269.282,252.803 269.615,253.803 271.5,254.5C 269.271,255.034 268.938,256.701 270.5,259.5C 270.565,259.938 270.399,260.272 270,260.5C 269.25,259.874 268.416,259.374 267.5,259C 268.536,255.889 268.536,252.722 267.5,249.5 Z"/></g>
<g><path style="opacity:1" fill="#f1f1f1" d="M 212.5,278.5 C 212.56,279.043 212.893,279.376 213.5,279.5C 214.466,277.604 214.799,275.604 214.5,273.5C 219.032,273.818 223.366,273.485 227.5,272.5C 227.833,272.5 228.167,272.5 228.5,272.5C 229.165,274.369 229.831,276.369 230.5,278.5C 231.107,278.376 231.44,278.043 231.5,277.5C 232.29,276.206 233.29,275.039 234.5,274C 251.92,274.291 269.253,273.958 286.5,273C 290.015,271.982 292.348,269.815 293.5,266.5C 293.312,268.103 293.812,269.437 295,270.5C 296.333,267.833 297.667,267.833 299,270.5C 300.333,267.833 301.667,267.833 303,270.5C 304.333,267.833 305.667,267.833 307,270.5C 308.333,267.833 309.667,267.833 311,270.5C 312.333,267.833 313.667,267.833 315,270.5C 316.333,267.833 317.667,267.833 319,270.5C 320.333,267.833 321.667,267.833 323,270.5C 324.333,267.833 325.667,267.833 327,270.5C 328.432,268.069 329.932,268.069 331.5,270.5C 331.5,290.833 331.5,311.167 331.5,331.5C 220.833,331.5 110.167,331.5 -0.5,331.5C -0.5,310.167 -0.5,288.833 -0.5,267.5C 0.794229,268.29 1.9609,269.29 3,270.5C 3.66667,269.833 4.33333,269.167 5,268.5C 6.33333,271.167 7.66667,271.167 9,268.5C 10.3333,271.167 11.6667,271.167 13,268.5C 14.3333,271.167 15.6667,271.167 17,268.5C 18.3333,271.167 19.6667,271.167 21,268.5C 22.3333,271.167 23.6667,271.167 25,268.5C 26.3333,271.167 27.6667,271.167 29,268.5C 30.3333,271.167 31.6667,271.167 33,268.5C 34.3333,271.167 35.6667,271.167 37,268.5C 38.5545,270.927 39.7211,270.927 40.5,268.5C 42.9477,271.125 45.781,273.125 49,274.5C 53.4284,273.672 57.9284,273.005 62.5,272.5C 69.4735,274.132 76.3068,273.799 83,271.5C 86.9203,272.82 90.9203,273.82 95,274.5C 99.0939,273.819 103.094,272.819 107,271.5C 110.507,272.926 114.173,273.592 118,273.5C 128.492,272.84 138.992,272.34 149.5,272C 151.049,270.786 152.215,269.286 153,267.5C 153.273,260.921 152.106,254.588 149.5,248.5C 151.743,247.526 154.076,247.192 156.5,247.5C 156.334,253.842 156.5,260.175 157,266.5C 157.739,269.573 159.572,271.74 162.5,273C 170.541,273.017 178.541,273.184 186.5,273.5C 188.5,273.833 190.5,274.167 192.5,274.5C 194.288,277.905 195.288,277.238 195.5,272.5C 202.215,272.016 207.882,274.016 212.5,278.5 Z"/></g>
<g><path style="opacity:1" fill="#7a7a7a" d="M 228.5,272.5 C 228.56,271.957 228.893,271.624 229.5,271.5C 230.169,273.631 230.835,275.631 231.5,277.5C 231.44,278.043 231.107,278.376 230.5,278.5C 229.831,276.369 229.165,274.369 228.5,272.5 Z"/></g>
<g><path style="opacity:1" fill="#484848" d="M 227.5,272.5 C 223.366,273.485 219.032,273.818 214.5,273.5C 214.799,275.604 214.466,277.604 213.5,279.5C 212.893,279.376 212.56,279.043 212.5,278.5C 213.461,276.735 213.795,274.735 213.5,272.5C 218.167,272.5 222.833,272.5 227.5,272.5 Z"/></g>
<g><path style="opacity:1" fill="#151515" d="M 153.5,286.5 C 155.5,286.5 157.5,286.5 159.5,286.5C 160.5,293.837 161.5,301.17 162.5,308.5C 161.167,308.5 159.833,308.5 158.5,308.5C 158.5,307.167 158.5,305.833 158.5,304.5C 156.833,304.5 155.167,304.5 153.5,304.5C 153.5,305.833 153.5,307.167 153.5,308.5C 152.5,308.5 151.5,308.5 150.5,308.5C 151.283,301.135 152.283,293.801 153.5,286.5 Z"/></g>
<g><path style="opacity:1" fill="#030303" d="M 164.5,286.5 C 174.488,285.334 177.154,289.168 172.5,298C 173,298.5 173.5,299 174,299.5C 174.498,302.482 174.665,305.482 174.5,308.5C 173.5,308.5 172.5,308.5 171.5,308.5C 171.664,305.813 171.497,303.146 171,300.5C 169.989,299.663 168.822,299.33 167.5,299.5C 167.5,302.5 167.5,305.5 167.5,308.5C 166.5,308.5 165.5,308.5 164.5,308.5C 164.5,301.167 164.5,293.833 164.5,286.5 Z"/></g>
<g><path style="opacity:1" fill="#040404" d="M 175.5,286.5 C 179.167,286.5 182.833,286.5 186.5,286.5C 186.5,287.5 186.5,288.5 186.5,289.5C 185.167,289.5 183.833,289.5 182.5,289.5C 182.5,295.833 182.5,302.167 182.5,308.5C 181.5,308.5 180.5,308.5 179.5,308.5C 179.5,302.167 179.5,295.833 179.5,289.5C 178.167,289.5 176.833,289.5 175.5,289.5C 175.5,288.5 175.5,287.5 175.5,286.5 Z"/></g>
<g><path style="opacity:1" fill="#cecece" d="M 167.5,289.5 C 171.473,290.075 172.473,292.242 170.5,296C 169.552,296.483 168.552,296.649 167.5,296.5C 167.5,294.167 167.5,291.833 167.5,289.5 Z"/></g>
<g><path style="opacity:1" fill="#c8c8c8" d="M 155.5,291.5 C 156.222,291.918 156.722,292.584 157,293.5C 157.497,296.146 157.664,298.813 157.5,301.5C 156.5,301.5 155.5,301.5 154.5,301.5C 154.833,298.167 155.167,294.833 155.5,291.5 Z"/></g>
<g><path style="opacity:1" fill="#000000" d="M 145.5,305.5 C 146.5,305.5 147.5,305.5 148.5,305.5C 148.5,306.5 148.5,307.5 148.5,308.5C 147.5,308.5 146.5,308.5 145.5,308.5C 145.5,307.5 145.5,306.5 145.5,305.5 Z"/></g>
</svg>
