<svg xmlns="http://www.w3.org/2000/svg" viewBox="0 0 592 592" xml:space="preserve">
  <path d="M37.485558 257.62384c4.259967-29.40538 13.72277-56.617279 27.362236-82.443618 29.504112-55.866028 73.421356-96.304314 131.08789-121.748257 28.061417-12.38142 57.396149-19.842487 88.176804-21.907105 50.66925-3.398645 97.915588 8.239808 142.313812 31.88398 57.775635 30.768292 97.799591 77.760777 122.740326 137.843006 9.614502 23.161377 15.147766 47.405182 17.283325 72.478196 3.117798 36.604522-.439819 72.442687-11.449463 107.466186-11.082458 35.254974-29.092407 66.795685-52.594299 95.185516-29.120789 35.177369-65.680847 60.127839-107.943176 76.823395-21.606537 8.535523-44.103638 13.644715-67.250214 16.226624-50.297607 5.61029-97.829956-3.749817-142.818756-26.238953-41.994858-20.992554-75.951309-51.335724-102.357369-90.194183-24.092998-35.454621-39.404548-74.301972-45.007808-116.788147-3.430615-26.012329-3.491001-52.119568.456692-78.58664m412.244239-147.831848c-22.573425-18.105491-47.575225-31.656105-75.021515-40.935028-36.239929-12.251842-73.329223-15.108345-110.842163-9.179684-45.506363 7.19196-85.778503 26.50269-120.090515 57.266629-65.358864 58.600372-92.624847 131.574447-80.500534 218.7388 6.402794 46.031036 25.600952 86.554809 55.130898 122.166321 38.187248 46.051788 86.711906 74.384002 145.961433 84.109222 32.547394 5.342285 64.804566 3.658264 96.474152-4.851868 54.022552-14.516662 97.838165-44.538543 130.982025-89.6763 26.196808-35.676758 42.749603-75.286407 48.051605-119.508056 2.857483-23.832611 2.833252-47.586976-1.5047-71.081391-11.032775-59.75354-41.016235-108.376602-88.640686-147.048645z"/>
  <path d="M345.182922 150.847107c5.58371 9.892441 11.097535 19.40567 16.354676 29.058716 1.575317 2.892563 3.530151 3.862167 6.755096 3.84967 23.831665-.092316 47.664124-.042953 71.496033.037567 3.087768.010422 5.832092-.671051 8.596496-2.077285 10.778473-5.482972 23.42511-3.474793 30.21872 4.61264 7.397766 8.806671 8.690887 23.209717 1.015106 31.977768-10.405609 11.886261-16.40329 26.203277-24.265533 39.475159-8.061554 13.608429-15.364869 27.664245-23.153839 41.437255-1.665619 2.945313-1.621216 5.250733.010223 8.275727 12.572204 23.311187 25.001251 46.700409 37.319 70.147217 1.920593 3.655853 4.917145 6.235626 7.475128 9.268127 11.277314 13.369598 7.215485 32.622101-8.359283 39.318207-7.336273 3.154175-14.697296 2.898895-21.615875-1.130738-5.088379-2.963653-10.381775-4.001159-16.223572-3.953247-21.164215.173615-42.331268.14682-63.495758-.007293-3.823334-.027832-6.072998 1.266479-7.940247 4.597534-10.750488 19.177643-21.66687 38.262573-32.580414 57.348389-2.532074 4.428131-3.366119 9.354797-4.642303 14.174163-2.45636 9.276062-9.813782 16.073273-18.240631 17.03415-9.557739 1.089843-18.514923-3.554047-22.921631-11.892304-.388397-.734985-.998016-1.474121-1.055542-2.244904-.990662-13.270904-9.180512-23.339416-15.248932-34.334564-7.405121-13.416992-15.042175-26.706909-22.354294-40.173706-1.849838-3.40686-4.13118-4.580047-7.939239-4.54956-20.83104.166656-41.664643.188141-62.495819.040466-5.503495-.039001-10.383271 1.196228-15.26767 3.756683-9.74617 5.108979-19.569656 5.149994-28.727661-1.540954-12.096718-8.837921-11.842629-23.476746-3.67939-34.768769 6.91021-9.558837 12.065224-19.892608 17.681602-30.045013 9.272293-16.761047 18.015732-33.813934 27.170441-50.641327 1.864487-3.427124 1.990402-6.073669.003113-9.617859-11.567795-20.630401-22.847046-41.422607-34.215622-62.164657-2.730881-4.982483-5.826309-9.588852-10.060402-13.556504-8.85498-8.29776-10.454414-23.572647-3.885559-33.056335 7.134605-10.300491 20.216133-13.934601 31.906776-8.405808 4.232148 2.00148 8.391785 2.750962 12.981873 2.72316 21.998245-.13324 43.998154-.191131 65.995804-.036758 4.130569.028991 6.788513-1.095841 8.862396-4.814423 10.872787-19.495514 21.919922-38.894073 32.960693-58.295456 2.844666-4.998779 3.941223-10.54644 5.551209-15.962707 5.217651-17.553162 26.295318-22.536728 39.059021-9.359177 2.267212 2.340729 4.35263 5.024262 4.489441 8.180313.466095 10.75396 7.17807 18.778641 11.648163 27.756577 3.263305 6.554153 7.079956 12.832779 10.818206 19.55986m-18.002136 202.819794c24.263886-13.294617 35.987-36.874176 31.532715-64.336731-5.923096-36.518067-41.552704-56.150452-74.830109-46.498215-28.358139 8.225388-45.96196 36.458816-41.377639 65.894546 6.362747 40.854859 48.884719 62.817444 84.675033 44.9404m111.452912-118.497666c5.237762-7.537719 7.227813-14.909698-1.088624-21.776153-.242889-.200547-.43283-.53415-.521484-.842026-1.00531-3.489655-3.40387-4.296341-6.840301-4.26445-15.806702.146652-31.61557.042297-47.423493.093185-1.560608.00502-3.357574-.588012-4.957764 1.372193 12.355347 21.838058 23.31662 44.61557 37.095154 67.231689 9.346985-14.063415 16.010376-27.821609 23.736512-41.814438m-239.202103 19.793701c7.55484-15.271453 16.758896-29.697357 23.82904-45.05252-2.163299-2.024826-4.258484-1.523209-6.193054-1.529831-13.481842-.046173-26.97261.256241-40.442184-.154114-6.525086-.198792-11.794647.470474-14.037262 7.640259-.377289 1.206161-1.343018 2.345916-2.300537 3.23114-3.006531 2.779602-2.599579 5.538238-.773468 8.871445 7.912002 14.441757 15.610717 29.000228 23.466125 43.473312.90509 1.667572 1.575104 3.671875 3.656189 4.559967.410812-.356293.853623-.617615 1.130951-.999176 4.420578-6.08252 7.481522-12.95929 11.6642-20.040482M410.5 395.039307c5.828949-.0224 11.657928-.045563 17.486877-.066986 10.854096-.039856 16.687165-8.872529 11.863068-18.460938-7.255859-14.421692-14.817261-28.690124-22.310181-42.991486-.866119-1.653137-1.546508-3.616668-3.956909-4.616577-12.300262 21.846375-24.479767 43.478363-37.23764 66.137482 11.896973 0 22.525879 0 34.154785-.001495m-250.191803-13.575074c-.63208 4.626801 3.963181 6.244843 5.488647 9.585083 1.48436 3.250245 3.794419 4.069886 7.143692 4.033783 15.138138-.163116 30.278534-.107757 45.417634-.204956 1.9151-.012268 3.989624.432648 6.345047-1.408264-12.116623-21.340484-24.245972-42.703369-36.446061-64.190857-2.656189 1.543091-3.426788 3.205414-4.289032 4.805023-5.759567 10.684967-11.631652 21.311005-17.246749 32.071228-2.443131 4.681824-5.521271 9.131226-6.413178 15.30896m149.256989-241.562698c-6.457306-7.241089-13.611695-6.891525-18.5625 1.49884-7.859559 13.319962-15.256592 26.912979-22.817139 40.408509-.19812.353622-.024994.915207-.024994 1.496551H333.8461c-7.907227-14.935409-15.289948-29.193161-24.280914-43.4039M300.5 421.156281h-30.743652c.526153 1.875061.631134 3.061401 1.160125 4.011688 7.189484 12.915344 13.868531 26.116852 21.694825 38.676422 1.735595 2.785278 3.978057 3.885162 7.366058 4.085876 5.795135.343201 8.442841-3.439788 10.804047-7.417205 6.86856-11.569947 13.48294-23.290955 20.170745-34.967804.64029-1.117981 1.455445-2.26413.54535-4.388489-9.814484 0-19.905976 0-30.997498-.000488m35.738708-42.242707c-6.620819 2.950531-13.717071 4.447174-21.717895 6.499695 9.687073 5.003754 18.191498 9.693878 28.481262 9.46875 3.395966-.07428 5.51825-.970886 7.04831-4.163452 2.725402-5.686798 5.924346-11.144745 8.825714-16.749909 1.491699-2.881713 3.408752-5.607269 4.295684-9.850311-9.257019 5.107269-17.748504 9.792206-26.933075 14.795227m-63.685028 6.158081c-12.012542-6.857513-23.470687-14.57196-34.843093-22.650604 4.861434 10.342712 10.132003 20.298889 15.380905 30.26651 1.246689 2.367432 3.456787 2.303986 5.62442 2.299133 9.141662-.020446 18.283661-.040954 27.424377-.154083 1.144501-.014191 2.666565.576813 3.578888-1.377441-5.531769-2.704041-11.014526-5.384125-17.165497-8.383515m56.360505-164.740875c12.233123 4.005905 23.27185 10.373993 35.02127 18.407608-3.885162-10.935852-9.484253-19.354095-14.45523-28.082336-.72638-1.275376-2.137909-1.465714-3.517975-1.486283-11.650696-.173614-22.387635 3.89386-34.624939 6.78682 6.50003 1.588394 11.657348 2.848663 17.576874 4.374191m-112.141251 72.444397c.938873-5.519257 1.877747-11.038513 2.875732-16.905243-7.476226 7.035584-13.270004 15.053406-18.52182 23.513702-1.213562 1.954957-.960281 3.7417.132767 5.602723 4.89299 8.330597 10.952805 15.709686 18.867783 23.484069-2.953446-12.313385-3.832505-23.48059-3.354462-35.695251m32.503113-77.024307c-3.617234 6.640579-7.234452 13.281158-10.851685 19.921737 15.102326-7.560577 29.985733-14.839172 42.214371-26.645706-6.429352-.633667-12.727875-.265121-18.961945-.740921-5.830139-.444946-10.02742 1.019715-12.400741 7.46489m150.60878 87.929062c.491607-.931946.637939-1.863739.084991-2.837738-4.100128-7.222321-8.282776-14.393677-13.721863-20.722657-.801513-.932678-1.712463-2.207519-3.758941-.849243 3.062286 14.966675 2.79129 30.23053.282074 45.588043 7.440796-5.731506 12.508087-12.836914 17.113739-21.178405z"/>
  <path d="M99.165665 351.5849c-5.686188-20.967926-7.71563-41.94397-6.388878-63.16275 1.094604-17.505951 4.788803-34.541901 11.058769-50.9888 1.668671-4.377121 4.268013-5.425217 8.566109-3.759079 4.823066 1.869598 8.601448 4.96315 11.893226 8.827697 2.033745 2.387619 2.508217 4.958329 1.414467 7.896881-7.49704 20.142228-9.792915 40.994004-8.381332 62.330521.937042 14.163666 3.622742 27.998047 8.03405 41.496094 2.876266 8.801025-3.640099 19.415192-12.883377 21.224579-3.608307.706329-5.786583-.605683-6.884506-4.0094-2.093628-6.490539-4.197083-12.977905-6.428528-19.855743zM504.394287 257.791199c6.064575 26.677978 6.803192 53.021301 1.442444 79.502624-2.315064 11.435883-5.549133 22.582825-9.726654 33.458496-1.967499 5.122284-4.167603 5.900483-9.295776 3.737824-5.00293-2.109833-8.312195-5.953858-10.966004-10.503082-1.288757-2.20929-.976318-4.414338-.222687-6.725495 7.129944-21.865478 10.381623-44.250763 9.066193-67.267731-.705475-12.344329-3.299957-24.322937-6.653107-36.16452-2.433929-8.595306-1.316559-11.651947 6.334168-16.6091 9.973419-6.462143 12.065918-5.785111 15.642669 5.33931 1.574341 4.896469 2.883606 9.878173 4.378754 15.231674zM433.237 170.126602c-10.344941-9.186676-20.028687-18.51564-31.257264-26.130615-17.697693-12.002152-36.766937-20.726288-57.610748-25.363548-5.000244-1.11245-7.73233-3.433747-8.175598-8.437744-.336853-3.8023-.730957-7.607399-.849579-11.41903-.128387-4.126701 2.041748-5.636627 6.068237-4.863807 25.086243 4.814857 48.607788 13.575065 70.14151 27.480293 15.903717 10.269668 30.108429 22.451507 42.335389 36.923477 3.495269 4.13707 3.173675 5.508011-1.948761 7.391983-4.2128 1.549393-8.438691 3.065476-12.683411 4.524582-1.861847.640015-3.778351 1.536148-6.019775-.105591zM174.946808 163.952682c-1.083145 1.069199-2.013931 1.80922-2.728363 2.719132-3.494965 4.451324-7.409729 5.51619-12.605408 2.550461-2.985123-1.703964-6.535065-2.421799-9.836075-3.568253-5.161712-1.792648-5.553924-2.988464-1.944214-7.272812 13.853562-16.442688 29.70131-30.585098 48.470902-41.231338 19.547928-11.087715 40.17279-19.30558 62.478699-22.945717 6.055023-.988121 7.50122.098236 7.577148 6.279243.022522 1.832253.040192 3.668595-.051147 5.497506-.405915 8.129486-2.66919 10.986259-10.575791 12.803588-31.205536 7.172585-57.643799 22.854699-80.785751 45.16819zM444.696411 439.200287c9.71106 3.665466 9.771912 3.721649 2.995972 11.059082-28.669159 31.045105-64.125061 49.786194-105.38916 57.914978-5.153565 1.015198-6.947724-.43988-6.724549-5.593353.193329-4.463837-.508178-8.99289.992676-13.390869 1.069397-3.133698 2.947968-4.938538 6.315033-5.569062 29.683655-5.558227 54.607391-20.473968 77.378632-39.575256.255157-.21405.523407-.421723.738983-.672394 6.622955-7.700165 14.071869-10.919647 23.692413-4.173126zM152.459106 447.327667c-2.372634-2.642486-1.793533-4.404449.934693-5.742157 4.031326-1.976715 8.051132-3.977051 12.069046-5.980957 3.730957-1.860809 6.757095-.502899 9.501053 2.07663 8.006576 7.526733 16.301666 14.689331 25.36618 20.94815 17.750733 12.256348 37.113739 20.738434 58.279938 24.930542 4.023407.796875 5.948273 2.847413 6.892486 6.717896 1.008973 4.135956.850647 8.265015.778016 12.402344-.084107 4.788757-1.865082 6.030853-6.743897 5.177093-42.72345-7.476227-78.40387-27.438049-107.077515-60.529541z"/>
</svg>